<?xml version="1.0" ?><!DOCTYPE svg  PUBLIC '-//W3C//DTD SVG 1.1//EN'  'http://www.w3.org/Graphics/SVG/1.1/DTD/svg11.dtd'><svg enable-background="new 0 0 128 128" height="128px" version="1.1" viewBox="0 0 128 128" width="128px" xml:space="preserve" xmlns="http://www.w3.org/2000/svg" xmlns:xlink="http://www.w3.org/1999/xlink"><g id="Layer_2"/><g id="Layer_1"><line fill="none" stroke="#231F20" stroke-linecap="round" stroke-linejoin="round" stroke-miterlimit="10" stroke-width="5" x1="64.261" x2="64.261" y1="51.801" y2="38.97"/><polygon fill="none" points="   111.306,103.835 64.261,103.835 64.261,48.341 87.073,28.205 111.306,48.341  " stroke="#231F20" stroke-linecap="round" stroke-linejoin="round" stroke-miterlimit="10" stroke-width="5"/><line fill="none" stroke="#231F20" stroke-linecap="round" stroke-linejoin="round" stroke-miterlimit="10" stroke-width="5" x1="64.261" x2="64.261" y1="57.475" y2="38.97"/><line fill="none" stroke="#231F20" stroke-linecap="round" stroke-linejoin="round" stroke-miterlimit="10" stroke-width="5" x1="111.306" x2="111.306" y1="64.461" y2="38.97"/><polyline fill="none" points="   79.942,103.835 79.942,90.323 95.624,90.323 95.624,103.835  " stroke="#231F20" stroke-linecap="round" stroke-linejoin="round" stroke-miterlimit="10" stroke-width="5"/><rect fill="none" height="8.553" stroke="#231F20" stroke-linecap="round" stroke-linejoin="round" stroke-miterlimit="10" stroke-width="5" width="8.553" x="75.521" y="55.908"/><rect fill="none" height="8.553" stroke="#231F20" stroke-linecap="round" stroke-linejoin="round" stroke-miterlimit="10" stroke-width="5" width="8.554" x="91.084" y="55.908"/><rect fill="none" height="8.554" stroke="#231F20" stroke-linecap="round" stroke-linejoin="round" stroke-miterlimit="10" stroke-width="5" width="8.553" x="75.521" y="71.316"/><rect fill="none" height="8.554" stroke="#231F20" stroke-linecap="round" stroke-linejoin="round" stroke-miterlimit="10" stroke-width="5" width="8.554" x="91.084" y="71.316"/><rect fill="none" height="7.041" stroke="#231F20" stroke-linecap="round" stroke-linejoin="round" stroke-miterlimit="10" stroke-width="5" width="7.357" x="83.9" y="40.439"/><line fill="none" stroke="#231F20" stroke-linecap="round" stroke-linejoin="round" stroke-miterlimit="10" stroke-width="5" x1="16.944" x2="16.944" y1="51.801" y2="38.97"/><polygon fill="none" points="   63.989,103.835 16.944,103.835 16.944,48.341 39.757,28.205 63.989,48.341  " stroke="#231F20" stroke-linecap="round" stroke-linejoin="round" stroke-miterlimit="10" stroke-width="5"/><line fill="none" stroke="#231F20" stroke-linecap="round" stroke-linejoin="round" stroke-miterlimit="10" stroke-width="5" x1="16.944" x2="16.944" y1="57.475" y2="38.97"/><polyline fill="none" points="   32.625,103.835 32.625,90.323 48.308,90.323 48.308,103.835  " stroke="#231F20" stroke-linecap="round" stroke-linejoin="round" stroke-miterlimit="10" stroke-width="5"/><rect fill="none" height="8.553" stroke="#231F20" stroke-linecap="round" stroke-linejoin="round" stroke-miterlimit="10" stroke-width="5" width="8.553" x="28.204" y="55.908"/><rect fill="none" height="8.553" stroke="#231F20" stroke-linecap="round" stroke-linejoin="round" stroke-miterlimit="10" stroke-width="5" width="8.554" x="43.767" y="55.908"/><rect fill="none" height="8.554" stroke="#231F20" stroke-linecap="round" stroke-linejoin="round" stroke-miterlimit="10" stroke-width="5" width="8.553" x="28.204" y="71.316"/><rect fill="none" height="8.554" stroke="#231F20" stroke-linecap="round" stroke-linejoin="round" stroke-miterlimit="10" stroke-width="5" width="8.554" x="43.767" y="71.316"/><rect fill="none" height="7.041" stroke="#231F20" stroke-linecap="round" stroke-linejoin="round" stroke-miterlimit="10" stroke-width="5" width="7.358" x="36.583" y="40.439"/></g></svg>