<?xml version="1.0" ?><!DOCTYPE svg  PUBLIC '-//W3C//DTD SVG 1.1//EN'  'http://www.w3.org/Graphics/SVG/1.1/DTD/svg11.dtd'><svg enable-background="new 0 0 128 128" height="80px" version="1.1" viewBox="0 0 128 128" width="80px" xml:space="preserve" xmlns="http://www.w3.org/2000/svg" xmlns:xlink="http://www.w3.org/1999/xlink"><g id="Layer_2"/><g id="Layer_1"><path d="   M38.014,101.661l14.893-25.247c0,0,8.111,0.01,14.267,0.01s7.509-2.516,7.509-2.516l15.619,27.966" fill="none" stroke="#231F20" stroke-linecap="round" stroke-linejoin="round" stroke-miterlimit="10" stroke-width="5"/><path d="   M98.319,99.812c0,0-9.587-24.257-10.401-27.992c-0.851-3.904-0.276-9.946,2.205-14.15c1.88-3.187,5.789-5.223,5.789-5.223   s1.663,10.331,7.167,10.461c4.308,0.103,4.984-6.957,4.858-12.225c-0.062-2.599,0.276-4.145,2.08-5.19   c-1.148-3.49-7.949-7.949-13.83-8.361s-11.51,1.137-15.738,5.577c-3.908,4.103-8.222,9.907-13.184,9.355   c-4.963-0.551-16.113-1.421-23.519,0.208c-3.337,0.734-7.105,2.916-8.139,8.728c-1.073,6.028,3.498,10.744,3.498,10.744   l-8.934,27.798" fill="none" stroke="#231F20" stroke-linecap="round" stroke-linejoin="round" stroke-miterlimit="10" stroke-width="5"/><path d="   M16.327,93.001c9.604,6.249,23.916,11.177,48.339,11.177s38.735-4.928,48.339-11.177" fill="none" stroke="#231F20" stroke-linecap="round" stroke-linejoin="round" stroke-miterlimit="10" stroke-width="5"/><path d="   M34.258,87.222c-17.702-2.532-21.689-30.84,2.876-30.415" fill="none" stroke="#231F20" stroke-linecap="round" stroke-linejoin="round" stroke-miterlimit="10" stroke-width="5"/><path d="   M35.494,61.875c-4.889-0.621-8.951,4.115-8.171,9.107c0.521,3.339,3.206,6.791,9.254,8.836" fill="none" stroke="#231F20" stroke-linecap="round" stroke-linejoin="round" stroke-miterlimit="10" stroke-width="5"/><circle cx="102.453" cy="50.322" fill="#231F20" r="2.199"/></g></svg>