<?xml version="1.0" ?><!DOCTYPE svg  PUBLIC '-//W3C//DTD SVG 1.1//EN'  'http://www.w3.org/Graphics/SVG/1.1/DTD/svg11.dtd'><svg enable-background="new 0 0 24 24" height="50px" id="Layer_1" version="1.1" viewBox="0 0 24 24" width="50px" xml:space="preserve" xmlns="http://www.w3.org/2000/svg" xmlns:xlink="http://www.w3.org/1999/xlink"><path d="M23,22h-5v-4c3.4-0.3,6-3.1,6-6.5C24,7.9,21.1,5,17.5,5c-1,0-1.9,0.2-2.7,0.6C13.9,2.4,11,0,7.5,0C3.4,0,0,3.4,0,7.5  c0,4,3.1,7.2,7,7.5v7H1c-0.6,0-1,0.4-1,1v1h24v-1C24,22.4,23.6,22,23,22z M17.5,6c3,0,5.5,2.5,5.5,5.5c0,2.9-2.2,5.2-5,5.5v-2.8  c0,0,2.6-2.6,2.6-2.6c0.2-0.2,0.2-0.5,0-0.7s-0.5-0.2-0.7,0L18,12.8V9.5C18,9.2,17.8,9,17.5,9S17,9.2,17,9.5v3.3l-1.9-1.9  c-0.2-0.2-0.5-0.2-0.7,0s-0.2,0.5,0,0.7c0,0,2.6,2.6,2.6,2.6V17c-2.2-0.2-4-1.7-4.7-3.7c1.7-1.4,2.7-3.4,2.7-5.8  c0-0.3,0-0.6-0.1-0.9C15.7,6.2,16.6,6,17.5,6z M1,7.5C1,3.9,3.9,1,7.5,1S14,3.9,14,7.5c0,3.4-2.6,6.2-6,6.5v-2.8  c0,0,3.6-3.6,3.6-3.6c0.2-0.2,0.2-0.5,0-0.7s-0.5-0.2-0.7,0L8,9.8V4.5C8,4.2,7.8,4,7.5,4S7,4.2,7,4.5v5.3L4.1,6.9  c-0.2-0.2-0.5-0.2-0.7,0s-0.2,0.5,0,0.7c0,0,3.6,3.6,3.6,3.6V14C3.6,13.7,1,10.9,1,7.5z M8,22v-7c1.3-0.1,2.4-0.5,3.5-1.1  c0.9,2.3,3,3.9,5.5,4.1v4H8z"/></svg>