<?xml version="1.0" standalone="no"?>
<!DOCTYPE svg PUBLIC "-//W3C//DTD SVG 20010904//EN"
 "http://www.w3.org/TR/2001/REC-SVG-20010904/DTD/svg10.dtd">
<svg version="1.0" xmlns="http://www.w3.org/2000/svg"
 width="16.000000pt" height="16.000000pt" viewBox="0 0 16.000000 16.000000"
 preserveAspectRatio="xMidYMid meet">
<metadata>
Created by potrace 1.11, written by Peter Selinger 2001-2013
</metadata>
<g transform="translate(0.000000,16.000000) scale(0.004000,-0.004000)"
fill="#000000" stroke="none">
<path d="M1670 3301 c0 -6 -19 -49 -42 -98 -36 -77 -41 -97 -43 -163 -1 -62
-4 -75 -18 -78 -14 -3 -17 -22 -19 -145 -3 -118 -6 -142 -18 -142 -12 0 -16
-21 -20 -110 l-5 -110 -82 -1 c-96 0 -86 -16 -84 143 l0 92 -27 3 c-27 3 -27
3 -28 91 -1 49 -7 94 -12 99 -17 17 -206 127 -212 123 -3 -2 -5 -67 -5 -144 0
-78 -3 -142 -7 -142 -5 -1 -14 -2 -20 -3 -7 0 -13 -11 -14 -23 -1 -12 -5 -30
-9 -40 -4 -10 -8 -58 -9 -108 l-1 -90 -68 -1 -68 -2 1 32 c6 99 7 97 -83 151
-80 48 -84 49 -167 50 -47 1 -90 0 -96 -2 -7 -3 -10 -37 -9 -93 l1 -90 -52 0
-51 0 1 -70 c1 -38 -1 -71 -4 -71 -23 -5 -71 -5 -79 0 -7 5 -12 103 -13 284
l-3 277 -152 -91 -153 -92 0 -257 0 -257 35 0 35 0 0 238 0 237 83 49 82 50 3
-254 c2 -232 4 -253 20 -254 53 -3 193 -1 204 3 9 4 13 25 12 72 l-1 66 49 0
48 0 1 53 c0 28 1 70 2 92 l2 40 49 1 c66 1 166 -55 167 -95 0 -14 1 -51 2
-81 l2 -55 135 0 135 0 0 93 c0 51 5 96 10 100 6 4 10 21 10 37 0 20 5 30 15
30 24 0 26 9 25 124 l-2 110 45 -23 45 -23 1 -104 c1 -85 4 -104 16 -105 8 -1
21 -2 28 -2 9 -2 12 -33 12 -120 l0 -117 153 0 152 0 5 110 c4 89 8 110 20
110 13 0 15 23 15 143 0 129 2 142 18 142 20 0 19 -9 21 115 2 89 19 175 36
175 3 0 13 -20 24 -45 14 -35 18 -68 17 -140 -1 -76 1 -95 14 -103 13 -7 17
-32 18 -145 1 -80 6 -137 12 -136 17 1 20 -28 19 -176 0 -97 3 -145 10 -146
44 -3 158 -1 162 3 2 3 5 39 5 81 1 70 3 76 22 79 21 3 22 9 25 96 2 68 6 94
17 98 7 3 11 12 8 20 -6 17 -6 17 83 19 l71 2 12 -32 c6 -17 11 -66 11 -109 0
-56 4 -78 14 -82 10 -4 14 -31 13 -113 0 -60 3 -113 6 -118 4 -6 329 -9 874
-9 944 1 869 -3 864 49 -1 9 -175 12 -838 12 l-838 0 -3 128 c-2 79 -6 126
-12 122 -6 -4 -10 28 -10 84 0 49 -4 93 -10 96 -5 3 -10 14 -10 24 0 17 -12
18 -145 18 -139 0 -150 -2 -146 -29 0 -5 -6 -8 -14 -8 -11 0 -15 -11 -16 -37
-3 -146 -5 -158 -16 -159 -7 -1 -16 -2 -21 -3 -4 0 -7 -36 -7 -78 1 -90 1 -93
-23 -86 -17 4 -18 17 -18 159 1 145 -1 159 -26 155 -5 0 -8 64 -8 144 0 122
-2 145 -15 145 -12 0 -15 15 -15 73 0 50 -5 82 -17 103 -10 17 -36 63 -58 102
-36 66 -55 87 -55 63z"/>
<path d="M2736 2131 c-8 -15 -60 -133 -116 -262 -55 -129 -107 -247 -115 -264
-8 -16 -39 -88 -70 -160 -30 -71 -60 -138 -65 -147 -8 -14 -6 -18 7 -19 22 -1
133 -1 150 0 7 1 23 22 35 48 l23 47 160 1 c88 1 166 -1 173 -3 8 -3 22 -24
33 -48 10 -24 22 -44 26 -45 36 -4 167 -3 174 2 5 3 1 23 -10 45 -10 21 -83
181 -161 354 -185 410 -218 480 -224 480 -3 0 -12 -13 -20 -29z m33 -359 c6
-21 29 -82 51 -136 22 -54 38 -101 36 -105 -2 -3 -51 -5 -108 -3 l-104 3 43
107 c23 59 46 122 49 140 8 43 21 41 33 -6z"/>
<path d="M3279 2153 c-1 -5 -2 -203 -3 -440 -1 -345 1 -433 11 -434 7 0 42 -1
78 -1 36 0 69 1 74 1 10 1 8 471 -2 489 -18 28 7 6 110 -96 59 -59 168 -164
242 -232 74 -69 144 -135 157 -147 50 -49 49 -55 48 414 l0 438 -87 3 -86 3 2
-255 2 -254 -35 41 c-42 50 -60 67 -220 217 -68 63 -157 148 -199 187 -73 70
-89 81 -92 66z"/>
<path d="M0 1852 c0 -363 10 -416 94 -497 104 -100 308 -119 463 -42 64 31
107 85 136 169 13 38 16 103 17 358 l1 311 -93 -3 -93 -3 0 -305 c-1 -267 -3
-309 -18 -337 -27 -51 -60 -67 -141 -69 -86 -3 -131 16 -160 65 -19 32 -20 54
-21 340 l0 306 -93 3 -92 3 0 -299z"/>
<path d="M880 1715 c0 -341 3 -435 13 -436 60 -4 142 -3 156 3 16 5 18 19 16
107 -1 56 2 101 7 102 4 0 24 1 43 1 19 0 41 -1 49 -1 8 -1 45 -48 82 -106 38
-58 73 -105 79 -106 50 -4 179 -3 187 2 6 4 -28 63 -76 135 -77 116 -83 130
-68 141 92 65 115 95 135 174 28 109 3 227 -65 303 -75 87 -169 114 -398 115
l-160 2 0 -436z m362 252 c49 -20 78 -66 83 -127 8 -127 -59 -189 -205 -186
l-54 1 -1 155 c-1 85 1 161 4 169 5 17 122 9 173 -12z"/>
<path d="M1669 2143 c-1 -4 -2 -200 -3 -435 -1 -422 -1 -428 19 -429 106 -5
370 -2 405 4 63 10 106 33 150 78 55 57 73 111 68 202 -6 92 -38 144 -111 178
l-47 23 34 19 c51 30 75 80 72 153 -4 95 -57 164 -153 198 -45 16 -432 24
-434 9z m372 -168 c52 -27 51 -103 -1 -130 -19 -10 -57 -15 -110 -15 l-80 0 0
79 0 79 81 1 c54 1 90 -4 110 -14z m21 -314 c71 -27 87 -141 28 -193 -30 -27
-40 -30 -135 -30 -19 0 -51 1 -70 1 l-35 1 0 113 c0 63 2 116 4 118 9 9 181 0
208 -10z"/>
<path d="M3045 1197 c-3 -7 -4 -95 -2 -197 l2 -185 31 -3 30 -3 0 192 -1 193
-28 7 c-19 5 -30 4 -32 -4z"/>
<path d="M3179 1186 c0 -6 0 -35 1 -64 1 -46 -1 -54 -19 -59 -28 -7 -29 -53
-1 -53 17 0 19 -7 19 -68 0 -71 12 -119 33 -127 29 -11 65 -12 90 -3 26 9 27
11 12 34 -12 18 -22 22 -40 18 -27 -7 -26 -11 -29 79 l-3 67 35 0 c31 0 34 2
31 27 -2 23 -8 27 -33 28 -30 0 -30 1 -31 57 0 32 -3 61 -8 65 -11 12 -56 11
-57 -1z"/>
<path d="M3352 1188 c-30 -30 5 -83 46 -67 22 8 27 19 22 49 -4 29 -46 40 -68
18z"/>
<path d="M1741 1052 c-68 -34 -92 -101 -61 -170 18 -41 75 -80 110 -76 8 1 27
2 41 3 15 0 38 10 53 22 l26 21 -22 18 c-20 16 -25 16 -44 3 -48 -31 -115 10
-110 67 4 59 53 85 111 58 21 -9 29 -9 41 3 20 21 8 45 -28 58 -44 16 -78 14
-117 -7z"/>
<path d="M2005 1060 c-37 -15 -74 -64 -80 -105 -7 -47 15 -98 56 -128 39 -28
117 -27 159 3 81 57 73 183 -15 224 -35 17 -88 20 -120 6z m105 -70 c26 -26
26 -70 -1 -104 -28 -35 -70 -35 -98 0 -42 53 -14 124 49 124 17 0 39 -9 50
-20z"/>
<path d="M2265 1060 l-30 -5 0 -120 0 -120 33 -3 32 -3 0 78 c0 91 15 123 59
123 44 0 51 -16 51 -112 l0 -88 33 0 33 0 -1 93 c-1 109 -7 129 -42 152 -33
22 -102 15 -117 -12 -9 -17 -10 -17 -15 2 -5 16 -12 19 -36 15z"/>
<path d="M2545 1045 c-49 -48 -25 -102 59 -132 57 -21 66 -35 32 -51 -19 -9
-31 -7 -60 8 -35 17 -37 17 -58 0 l-22 -18 34 -21 c19 -11 40 -21 45 -22 52
-5 68 -4 94 7 77 32 53 131 -35 149 -40 9 -55 18 -52 33 4 19 32 23 65 9 16
-7 27 -6 38 3 22 18 19 28 -15 45 -45 23 -97 19 -125 -10z"/>
<path d="M2749 1047 c-4 -77 4 -174 16 -198 24 -45 97 -58 136 -23 15 13 17
13 22 -1 4 -9 19 -15 37 -15 l30 0 0 123 c0 68 -2 126 -5 129 -3 2 -18 3 -34
0 l-29 -4 1 -79 c1 -84 -6 -100 -50 -113 -15 -5 -28 -1 -42 13 -16 16 -20 33
-20 97 0 42 -2 78 -3 80 -2 1 -16 5 -31 8 -22 4 -27 1 -28 -17z"/>
<path d="M3373 1062 c-22 -3 -23 -7 -23 -128 l0 -125 33 3 32 3 1 122 c2 127
0 132 -43 125z"/>
<path d="M3488 1062 c-16 -3 -18 -17 -18 -128 l0 -124 30 0 c17 0 30 3 31 8 1
4 2 42 2 85 2 84 15 107 62 107 39 0 51 -28 50 -117 l-1 -83 34 0 34 0 -4 106
c-3 102 -4 107 -31 130 -36 31 -85 31 -123 2 -21 -17 -26 -18 -22 -6 7 17 -14
27 -44 20z"/>
<path d="M3814 1060 c-12 -5 -31 -20 -42 -35 -19 -24 -21 -41 -7 -84 3 -10 -1
-31 -10 -47 -12 -25 -13 -31 0 -50 12 -19 12 -24 -9 -43 -35 -33 -22 -82 29
-108 29 -15 140 -16 166 -2 101 54 64 156 -59 164 -20 1 -47 3 -59 4 -14 0
-23 7 -23 17 0 12 8 15 37 11 74 -10 136 41 126 105 -3 22 0 26 12 22 8 -3 15
-2 16 2 0 5 2 17 4 27 2 9 0 17 -3 17 -4 0 -41 2 -82 5 -41 2 -85 0 -96 -5z
m77 -50 c35 -19 6 -82 -34 -74 -21 4 -47 29 -47 45 0 13 31 39 46 39 9 0 24
-5 35 -10z m32 -229 c33 -33 -62 -68 -113 -41 -20 11 -27 40 -13 54 11 11 113
0 126 -13z"/>
</g>
</svg>
